# xmcd
#
# Track frame offsets: 
#        150
#        12204
#        23512
#        34187
#        45305
#        55782
#        67927
#        78620
#        85455
#        95981
#        104738
#        113368
#
# Disc length: 1649 seconds
#
# Revision: 0
# Processed by: cddbd v1.5.2PL0 Copyright (c) Steve Scherf et al.
# Submitted via: ExactAudioCopy v0.99pb4
#
DISCID=8f066f0c
DTITLE=Waylon Jennings - At Jd's
DYEAR=1964
DGENRE=Country
TTITLE0=Crying
TTITLE1=Sally Was A Good Old Girl
TTITLE2=Burning Memories
TTITLE3=Big Mamou
TTITLE4=Money
TTITLE5=Don't Think Twice
TTITLE6=Dream Baby
TTITLE7=It's So Easy
TTITLE8=Lorena
TTITLE9=Love's Gonna Live Here
TTITLE10=Abilene
TTITLE11=White Lightnin'
EXTD=
EXTT0=
EXTT1=
EXTT2=
EXTT3=
EXTT4=
EXTT5=
EXTT6=
EXTT7=
EXTT8=
EXTT9=
EXTT10=
EXTT11=
PLAYORDER=
